<?xml version="1.0" encoding="UTF-8"?>
<svg xmlns="http://www.w3.org/2000/svg" xmlns:xlink="http://www.w3.org/1999/xlink" width="128pt" height="193pt" viewBox="0 0 128 193" version="1.1">
<g id="surface1">
<path style=" stroke:none;fill-rule:nonzero;fill:rgb(100%,100%,100%);fill-opacity:1;" d="M 90.640625 143.75 C 89.964844 143.804688 89.570312 143.988281 89.457031 144.296875 C 89.34375 144.605469 89.769531 145.839844 90.726562 148 L 92.207031 151.199219 C 92.882812 150.441406 92.980469 149.925781 92.503906 149.644531 C 92.191406 149.445312 91.9375 148.5625 91.742188 146.992188 C 91.570312 145.617188 91.53125 144.523438 91.613281 143.707031 L 90.640625 143.75 M 53.933594 110.242188 C 55.910156 112.207031 57.121094 113.792969 57.570312 115 C 58.191406 116.65625 59.375 118.296875 61.125 119.925781 C 62.335938 121.046875 63.648438 122.015625 65.058594 122.828125 L 53.511719 132.890625 L 54.824219 133.898438 L 58.542969 131.289062 L 52.371094 139.078125 L 50.042969 143.117188 L 51.652344 143.246094 L 52.242188 144.128906 C 52.414062 144.914062 51.917969 145.925781 50.761719 147.160156 L 47.167969 151.328125 L 48.3125 152.335938 L 48.4375 155.324219 C 48.382812 157.628906 47.957031 159.550781 47.167969 161.09375 L 43.617188 166.859375 L 39.726562 171.953125 L 39.894531 173.550781 L 42.261719 170.816406 L 41.503906 175.824219 C 41.136719 178.097656 39.542969 179.304688 36.722656 179.445312 C 35.597656 179.472656 34.554688 179.753906 33.59375 180.289062 L 31.183594 181.929688 C 28.589844 183.699219 26.347656 184.664062 24.460938 184.832031 C 23.359375 184.945312 22.304688 184.75 21.289062 184.246094 C 20.976562 184.105469 20.824219 183.683594 20.824219 182.980469 L 21.585938 182.476562 L 22.34375 181.972656 L 21.667969 181.84375 L 20.992188 181.675781 C 21.246094 180.582031 21.613281 179.460938 22.09375 178.308594 C 23.445312 177.71875 25.304688 177.019531 27.675781 176.203125 C 30.125 175.363281 31.675781 174.886719 32.324219 174.773438 C 33.339844 174.632812 34.230469 173.285156 34.988281 170.730469 C 35.609375 168.628906 35.921875 166.847656 35.921875 165.386719 L 35.539062 160.039062 C 35.34375 157.121094 35.457031 154.890625 35.878906 153.347656 C 36.273438 151.859375 36.808594 150.554688 37.484375 149.433594 L 38.332031 148.171875 L 40.066406 147.285156 L 39.8125 144.972656 C 39.386719 142.136719 39.417969 140.019531 39.894531 138.613281 C 40.207031 137.6875 40.699219 137.394531 41.375 137.730469 L 42.261719 138.53125 L 42.6875 145.265625 L 45.265625 146.992188 C 44.109375 140.566406 43.488281 136.242188 43.40625 134.027344 C 42.871094 133.96875 42.40625 132.832031 42.011719 130.617188 C 41.585938 128.230469 41.460938 125.59375 41.628906 122.703125 C 42.082031 114.734375 44.421875 108.953125 48.648438 105.359375 L 53.933594 110.242188 M 68.988281 96.648438 C 68.566406 96.140625 67.398438 95.777344 65.480469 95.554688 C 63.675781 95.355469 62.140625 95.371094 60.871094 95.59375 C 56.78125 96.410156 54.667969 97.097656 54.527344 97.65625 C 54.472656 98.023438 54.976562 98.148438 56.050781 98.035156 L 59.558594 97.65625 L 66.199219 97.953125 L 68.820312 97.824219 C 69.382812 97.546875 69.441406 97.152344 68.988281 96.648438 M 54.105469 89.953125 L 57.359375 88.101562 L 59.769531 87.21875 L 62.519531 86.921875 C 63.113281 86.980469 65.199219 87.835938 68.777344 89.492188 C 71.9375 90.949219 73.628906 91.46875 73.851562 91.050781 C 74.164062 90.460938 72.839844 89.378906 69.878906 87.808594 C 66.890625 86.234375 64.339844 85.308594 62.222656 85.03125 C 60.449219 84.777344 58.234375 85.535156 55.585938 87.300781 L 52.160156 90.039062 C 52.160156 90.683594 52.808594 90.65625 54.105469 89.953125 M 53.808594 92.523438 L 55.839844 92.648438 L 59.558594 92.226562 L 63.578125 92.355469 L 66.496094 92.226562 C 67.085938 91.976562 67.199219 91.46875 66.832031 90.710938 C 66.4375 89.871094 65.339844 89.449219 63.535156 89.449219 C 61.476562 89.449219 59.347656 89.800781 57.148438 90.5 C 54.976562 91.175781 53.863281 91.847656 53.808594 92.523438 M 65.097656 82 L 68.863281 81.660156 L 72.542969 81.578125 L 76.8125 81.957031 C 77.660156 82.097656 78.984375 82.574219 80.789062 83.386719 C 82.171875 84.003906 83.496094 84.257812 84.765625 84.144531 C 85.917969 84.035156 88.21875 82.417969 91.65625 79.304688 C 91.824219 78.96875 92.574219 78.082031 93.898438 76.652344 L 95.84375 74.589844 C 95.785156 74.027344 95.25 74.085938 94.238281 74.757812 L 91.570312 76.652344 L 88.230469 78.546875 C 86.625 79.304688 85.328125 79.753906 84.339844 79.894531 L 80.113281 79.769531 L 75.207031 79.429688 L 69.074219 79.976562 L 64.296875 80.316406 C 63.730469 80.203125 63.125 79.867188 62.476562 79.304688 L 61.632812 78.546875 L 61.800781 79.769531 C 62 80.664062 62.28125 81.296875 62.648438 81.660156 C 62.984375 82 63.800781 82.109375 65.097656 82 M 64.085938 66.507812 C 64.535156 66.902344 64.945312 67.097656 65.3125 67.097656 C 65.566406 67.097656 66.636719 66.496094 68.523438 65.289062 C 70.554688 63.996094 72.035156 63.238281 72.964844 63.015625 L 78.503906 61.667969 C 80.929688 61.023438 82.140625 60.53125 82.140625 60.195312 C 82.140625 59.800781 82.027344 59.519531 81.804688 59.351562 C 81.550781 59.128906 81.070312 59.015625 80.367188 59.015625 C 79.519531 59.015625 76.53125 60.027344 71.402344 62.046875 C 66.15625 64.09375 63.535156 65.386719 63.535156 65.917969 L 64.085938 66.507812 M 56.769531 67.6875 C 57.164062 67.238281 56.769531 66.464844 55.585938 65.371094 C 54.542969 64.417969 53.457031 63.675781 52.328125 63.140625 C 49.085938 61.484375 47.210938 60.558594 46.703125 60.363281 L 44.167969 59.984375 C 42.8125 59.898438 42.136719 60.027344 42.136719 60.363281 C 42.136719 60.613281 42.871094 61.09375 44.335938 61.792969 L 48.648438 63.730469 L 53.429688 66.59375 C 55.316406 67.742188 56.429688 68.109375 56.769531 67.6875 M 59.390625 70.339844 C 59.785156 69.1875 59.984375 68.261719 59.984375 67.558594 C 59.984375 66.773438 59.742188 66.382812 59.261719 66.382812 C 58.726562 66.382812 58.375 66.804688 58.207031 67.644531 L 57.785156 70.800781 C 57.585938 72.035156 57.585938 73.539062 57.785156 75.304688 C 58.007812 77.046875 58.304688 77.886719 58.671875 77.832031 C 58.925781 77.773438 59.050781 76.777344 59.050781 74.84375 C 59.050781 72.570312 59.164062 71.066406 59.390625 70.339844 M 64.421875 60.488281 C 64.703125 59.394531 64.71875 58.242188 64.464844 57.035156 C 64.238281 55.859375 63.929688 55.351562 63.535156 55.523438 C 63.308594 55.632812 63.265625 56.757812 63.40625 58.890625 C 63.324219 61.078125 62.535156 62.398438 61.039062 62.847656 L 59.222656 62.929688 C 58.742188 62.875 58.503906 63 58.503906 63.308594 C 58.503906 64.261719 59.191406 64.601562 60.574219 64.320312 C 61.421875 64.152344 62.167969 63.773438 62.816406 63.183594 C 63.605469 62.480469 64.140625 61.582031 64.421875 60.488281 M 67.976562 57.753906 C 67.214844 59.238281 66.960938 60.152344 67.214844 60.488281 C 67.46875 60.824219 67.945312 60.953125 68.652344 60.867188 C 69.382812 60.8125 69.75 60.542969 69.75 60.066406 L 70.722656 57.289062 C 71.203125 55.941406 71.019531 55.296875 70.175781 55.351562 C 69.46875 55.410156 68.738281 56.210938 67.976562 57.753906 M 59.941406 43.652344 L 57.445312 43.652344 L 56.558594 43.566406 C 55.992188 43.566406 55.949219 43.707031 56.429688 43.988281 L 57.699219 44.828125 C 58.375 45.195312 59.179688 45.292969 60.109375 45.125 L 60.703125 44.871094 L 60.914062 44.367188 C 60.828125 43.890625 60.503906 43.652344 59.941406 43.652344 M 50.976562 36.832031 C 51.144531 36.746094 51.355469 36.746094 51.609375 36.832031 L 54.273438 37.632812 C 56.304688 38.164062 57.980469 38.472656 59.304688 38.558594 C 61.421875 38.671875 64.183594 38.332031 67.59375 37.546875 C 68.46875 37.464844 69.117188 37.605469 69.539062 37.96875 C 69.851562 38.277344 69.90625 38.558594 69.707031 38.808594 L 68.988281 39.273438 L 62.730469 41.082031 C 61.886719 41.222656 60.773438 41.222656 59.390625 41.082031 L 56.21875 40.453125 L 51.441406 38.222656 C 51.074219 38.109375 50.847656 37.800781 50.761719 37.296875 C 50.707031 37.070312 50.777344 36.917969 50.976562 36.832031 M 48.691406 14.058594 C 49.199219 14.621094 49.761719 15.027344 50.382812 15.28125 L 49.496094 16.585938 L 47.847656 19.027344 C 47.253906 17.792969 46.945312 16.90625 46.914062 16.375 C 46.832031 15.363281 46.972656 14.59375 47.339844 14.058594 C 47.734375 13.5 48.183594 13.5 48.691406 14.058594 M 56.261719 29.382812 C 55.894531 29.746094 55.839844 30.140625 56.09375 30.558594 L 57.65625 33.210938 C 58.109375 33.800781 58.742188 33.96875 59.558594 33.71875 L 59.984375 33.464844 L 59.898438 32.960938 L 58.628906 30.980469 C 58.320312 30.53125 58.320312 30.109375 58.628906 29.71875 L 60.574219 27.066406 L 62.476562 23.574219 L 62.5625 23.066406 L 62.351562 22.816406 C 62.097656 22.703125 61.84375 22.855469 61.589844 23.277344 L 59.730469 26.015625 L 57.65625 28.078125 L 56.261719 29.382812 M 55.5 25.128906 C 55.554688 24.457031 55.375 23.699219 54.949219 22.855469 C 54.554688 22.042969 54.148438 21.59375 53.722656 21.511719 C 53.328125 21.453125 52.851562 21.804688 52.285156 22.5625 C 51.722656 23.320312 51.398438 24.035156 51.3125 24.710938 C 51.230469 25.296875 51.382812 25.664062 51.777344 25.804688 L 53.003906 26.015625 L 54.484375 26.140625 C 55.078125 26.054688 55.414062 25.71875 55.5 25.128906 M 52.625 17.679688 L 55.796875 18.015625 C 56.078125 18.042969 56.304688 17.972656 56.472656 17.804688 C 56.671875 17.636719 56.753906 17.425781 56.726562 17.175781 L 56.640625 16.457031 L 56.347656 15.910156 C 56.148438 15.800781 55.9375 15.800781 55.710938 15.910156 L 52.496094 17.214844 C 52.273438 17.328125 52.171875 17.425781 52.203125 17.511719 C 52.203125 17.59375 52.34375 17.652344 52.625 17.679688 M 101.59375 35.359375 L 103.582031 35.402344 C 103.414062 35.820312 102.765625 36.199219 101.636719 36.539062 C 100.847656 36.789062 100.101562 36.664062 99.394531 36.160156 C 98.859375 35.792969 98.464844 35.332031 98.210938 34.769531 L 97.238281 32.328125 L 98.210938 31.277344 C 98.269531 31.726562 98.449219 32.132812 98.761719 32.496094 L 100.242188 34.304688 C 100.75 34.953125 101.199219 35.300781 101.59375 35.359375 M 71.316406 41.882812 L 72.332031 38.683594 C 72.472656 38.234375 72.316406 37.855469 71.867188 37.546875 L 68.144531 34.433594 C 67.976562 34.292969 67.847656 34.25 67.765625 34.304688 C 67.679688 34.363281 67.679688 34.488281 67.765625 34.683594 L 68.144531 35.863281 L 67.933594 36.453125 L 67.296875 36.746094 C 63.550781 37.503906 60.773438 37.855469 58.96875 37.800781 C 57.839844 37.773438 56.304688 37.476562 54.359375 36.917969 L 51.734375 36.117188 L 51.1875 35.78125 C 51.074219 35.613281 51.03125 35.414062 51.058594 35.191406 L 51.101562 34.683594 L 51.015625 34.347656 C 50.933594 34.292969 50.820312 34.335938 50.679688 34.476562 L 49.070312 35.90625 C 48.902344 36.019531 48.804688 36.199219 48.777344 36.453125 L 48.859375 37.042969 L 50.382812 39.695312 L 50.636719 39.945312 L 50.761719 39.652344 L 50.804688 39.273438 L 51.058594 38.851562 C 51.230469 38.769531 51.410156 38.769531 51.609375 38.851562 L 54.019531 40.535156 C 55.9375 41.714844 57.714844 42.417969 59.347656 42.640625 C 60.984375 42.867188 63.195312 42.457031 65.988281 41.421875 L 69.667969 39.777344 C 70.175781 39.667969 70.554688 39.835938 70.808594 40.285156 L 70.679688 41.925781 L 71.316406 41.882812 M 83.578125 32.875 C 83.382812 32.59375 83.085938 32.328125 82.691406 32.074219 L 82.058594 32.160156 C 81.886719 32.382812 81.917969 32.582031 82.140625 32.75 L 82.648438 33.253906 C 82.988281 33.617188 83.15625 33.914062 83.15625 34.136719 C 83.15625 34.417969 83.3125 34.574219 83.621094 34.601562 C 83.933594 34.601562 84.085938 34.417969 84.085938 34.054688 C 84.085938 33.6875 83.917969 33.296875 83.578125 32.875 M 82.183594 29.382812 C 82.015625 29.605469 82.097656 29.84375 82.4375 30.097656 L 82.523438 30.179688 L 83.917969 31.277344 L 85.058594 32.707031 C 85.484375 33.269531 85.738281 33.421875 85.820312 33.167969 C 85.878906 33 85.765625 32.652344 85.484375 32.117188 L 84.59375 30.726562 C 84.003906 30.027344 83.394531 29.523438 82.777344 29.214844 C 82.550781 29.101562 82.351562 29.15625 82.183594 29.382812 M 71.738281 28.625 C 72.472656 28.652344 72.867188 28.386719 72.921875 27.824219 C 73.007812 27.152344 72.738281 26.308594 72.121094 25.296875 C 71.5 24.316406 70.976562 23.796875 70.554688 23.742188 C 70.105469 23.65625 69.457031 24.023438 68.609375 24.835938 C 67.734375 25.648438 67.367188 26.363281 67.511719 26.980469 C 67.621094 27.542969 67.988281 27.90625 68.609375 28.078125 L 70.089844 28.285156 L 71.738281 28.625 M 72.246094 17.382812 C 72.078125 17.246094 71.894531 17.1875 71.695312 17.214844 C 71.472656 17.246094 71.300781 17.34375 71.1875 17.511719 L 70.554688 18.140625 C 70.160156 18.5625 70.003906 18.84375 70.089844 18.984375 L 70.808594 19.40625 L 72.246094 20.203125 L 73.894531 21.339844 L 75.039062 21.972656 C 75.261719 21.382812 74.867188 20.445312 73.851562 19.152344 L 72.246094 17.382812 M 85.566406 17.425781 C 86.074219 19.109375 85.1875 20.375 82.902344 21.214844 C 82.789062 21.214844 82.664062 21.300781 82.523438 21.46875 C 82.351562 21.691406 82.421875 21.917969 82.734375 22.140625 L 86.285156 25.128906 C 88.203125 27.207031 89.050781 29.394531 88.824219 31.695312 C 88.230469 29.84375 87.316406 28.117188 86.074219 26.519531 C 84.664062 24.777344 83.679688 23.769531 83.113281 23.488281 L 82.351562 23.53125 C 82.183594 23.726562 82.226562 23.921875 82.480469 24.121094 L 83.453125 25.003906 L 85.3125 26.980469 C 86.414062 28.1875 87.527344 30.109375 88.652344 32.75 L 88.402344 33.546875 C 87.582031 31.472656 86.597656 29.773438 85.441406 28.457031 C 84.566406 27.472656 83.734375 26.773438 82.945312 26.351562 C 82.636719 26.210938 82.453125 26.292969 82.394531 26.601562 C 82.3125 26.882812 82.453125 27.164062 82.820312 27.445312 L 84.679688 29.042969 C 85.414062 29.886719 86.46875 31.484375 87.851562 33.84375 L 87.722656 34.097656 L 87.046875 34.179688 C 86.652344 34.320312 86.582031 34.601562 86.835938 35.023438 C 88.695312 36.675781 88.992188 38.460938 87.722656 40.367188 C 86.484375 42.25 84.664062 42.894531 82.269531 42.304688 C 79.503906 45.925781 76.335938 48.519531 72.753906 50.089844 C 69.960938 51.269531 68.046875 51.972656 67.003906 52.195312 C 63.449219 52.953125 60.25 52.546875 57.402344 50.976562 C 52.695312 48.367188 49.382812 44.4375 47.464844 39.1875 C 45.660156 34.195312 45.519531 29.253906 47.042969 24.371094 C 48 21.371094 49.648438 18.4375 51.988281 15.574219 C 53.03125 15.546875 54.117188 15.195312 55.246094 14.523438 L 57.402344 12.5 C 58.726562 11.265625 59.617188 10.578125 60.066406 10.4375 C 60.882812 10.128906 62.027344 10.523438 63.492188 11.617188 C 64.253906 12.039062 65.070312 12.222656 65.945312 12.164062 L 68.484375 11.535156 L 71.824219 11.746094 C 73.09375 12.25 74.21875 13.148438 75.207031 14.4375 C 75.65625 15.027344 76.277344 15.351562 77.066406 15.40625 L 79.097656 15.238281 L 82.648438 15.027344 C 84.117188 15.054688 85.089844 15.855469 85.566406 17.425781 M 32.324219 76.441406 L 32.285156 76.652344 C 32.789062 77.4375 33.890625 78.378906 35.582031 79.472656 L 37.738281 80.734375 C 37.964844 80.875 39.121094 81.421875 41.207031 82.378906 L 45.097656 84.019531 C 45.972656 84.242188 47.324219 84.101562 49.15625 83.597656 L 53.34375 82.546875 L 56.980469 81.703125 C 58.191406 81.3125 58.796875 81.003906 58.796875 80.777344 C 58.796875 80.496094 58.6875 80.214844 58.460938 79.9375 C 58.207031 79.597656 57.9375 79.488281 57.65625 79.597656 L 54.738281 80.734375 C 53.582031 81.15625 52.539062 81.367188 51.609375 81.367188 L 48.3125 81.113281 L 44.96875 80.777344 C 43.957031 80.695312 42.363281 80.246094 40.191406 79.429688 L 34.777344 77.242188 C 33.425781 76.707031 32.609375 76.441406 32.324219 76.441406 M 47.632812 9.976562 C 47.410156 8.601562 47.550781 7.410156 48.058594 6.398438 C 48.421875 5.667969 48.988281 5.023438 49.75 4.460938 C 49.578125 5.386719 49.804688 6.117188 50.425781 6.652344 C 51.242188 7.4375 52.230469 7.84375 53.386719 7.871094 C 54.511719 7.871094 55.527344 7.507812 56.429688 6.777344 C 59.023438 4.589844 60.785156 3.453125 61.714844 3.367188 C 62.503906 3.285156 63.550781 3.535156 64.847656 4.125 L 67.171875 4.292969 L 68.738281 2.695312 C 70.316406 0.898438 71.414062 0 72.035156 0 C 72.851562 0.0273438 73.839844 0.519531 74.996094 1.472656 L 76.011719 2.398438 L 77.195312 3.15625 C 78.460938 3.773438 79.605469 4.210938 80.621094 4.460938 C 82.171875 4.855469 83.523438 5.90625 84.679688 7.617188 L 86.792969 10.609375 C 87.78125 11.140625 88.765625 12.222656 89.753906 13.847656 L 91.570312 17.554688 C 92.390625 19.828125 92.332031 22.644531 91.402344 26.015625 C 90.953125 27.699219 90.402344 29.15625 89.753906 30.390625 C 89.445312 28.285156 88.554688 26.40625 87.089844 24.75 L 84.171875 22.015625 L 86.539062 20.414062 C 87.414062 19.601562 87.824219 18.84375 87.765625 18.140625 C 87.710938 17.046875 87.371094 16.109375 86.75 15.320312 C 85.878906 14.226562 84.566406 13.667969 82.820312 13.636719 L 79.816406 14.226562 L 77.277344 14.523438 L 74.53125 11.367188 C 72.949219 9.511719 71.652344 8.726562 70.640625 9.007812 L 67.804688 10.144531 L 65.820312 10.945312 C 65.226562 11.167969 64.734375 11.167969 64.339844 10.945312 L 63.324219 10.269531 L 61.632812 9.386719 L 59.390625 9.597656 C 58.855469 9.792969 57.910156 10.507812 56.558594 11.746094 L 54.441406 13.679688 C 53.539062 14.242188 52.652344 14.535156 51.777344 14.5625 C 50.761719 14.59375 49.945312 14.269531 49.324219 13.597656 C 48.421875 12.640625 47.859375 11.433594 47.632812 9.976562 M 107.261719 157.558594 C 108.078125 159.691406 108.347656 162.859375 108.066406 167.070312 L 107.386719 172.878906 L 105.484375 173.003906 L 116.058594 185.253906 L 118.128906 187.359375 C 118.75 188.003906 119.046875 188.398438 119.015625 188.539062 C 118.933594 188.847656 118.609375 189.085938 118.042969 189.253906 L 114.367188 190.265625 L 112.292969 190.726562 L 110.855469 189.128906 L 110.347656 191.441406 L 109.882812 192.285156 C 109.460938 192.761719 108.882812 193 108.148438 193 C 107.164062 193 106.316406 192.453125 105.613281 191.359375 C 105.019531 190.460938 104.722656 189.660156 104.722656 188.960938 C 104.695312 187.21875 103.863281 184.414062 102.230469 180.539062 L 99.648438 174.859375 L 99.648438 174.773438 C 96.578125 170.5625 94.136719 166.734375 92.332031 163.28125 C 91.207031 161.148438 90.527344 158.75 90.304688 156.082031 L 90.304688 152.632812 L 92.503906 153.515625 L 90.769531 150.90625 L 88.441406 145.433594 L 88.019531 144.003906 L 85.988281 143.707031 L 83.410156 142.738281 C 82.789062 142.292969 81.773438 141 80.367188 138.867188 L 78.292969 135.835938 C 76.882812 133.761719 75.390625 131.121094 73.8125 127.921875 L 71.402344 122.871094 C 71.542969 118.015625 73.710938 113.300781 77.914062 108.726562 C 80.507812 105.921875 83.269531 103.664062 86.203125 101.949219 L 91.65625 109.316406 C 95.320312 115.042969 97.621094 120.554688 98.550781 125.859375 C 99.199219 129.535156 99.523438 132.777344 99.523438 135.585938 L 99.269531 138.824219 L 96.6875 136.257812 L 95.96875 136.257812 C 95.492188 136.3125 95.25 136.496094 95.25 136.804688 C 95.25 137.058594 95.746094 137.886719 96.730469 139.289062 L 98.421875 141.980469 L 99.097656 145.476562 L 99.566406 149.476562 L 99.351562 151.707031 C 99.269531 152.351562 99.339844 152.757812 99.566406 152.925781 L 100.367188 153.558594 C 100.621094 153.671875 100.75 153.417969 100.75 152.800781 C 100.75 151.816406 101.117188 149.546875 101.847656 145.980469 C 104.46875 151.230469 106.273438 155.085938 107.261719 157.558594 M 104.257812 36.917969 C 104.371094 37.28125 104.371094 37.574219 104.257812 37.800781 L 103.625 38.429688 C 103.398438 38.628906 102.566406 38.894531 101.128906 39.230469 L 98.71875 39.738281 C 98.15625 38.640625 97.042969 36.945312 95.378906 34.644531 L 96.730469 32.960938 L 96.773438 33.421875 C 96.914062 34.097656 97.296875 34.964844 97.914062 36.03125 C 98.621094 37.210938 99.242188 37.871094 99.777344 38.011719 C 100.171875 38.09375 101.03125 37.855469 102.355469 37.296875 C 103.539062 36.761719 104.175781 36.636719 104.257812 36.917969 M 108.234375 29.042969 C 110.375 29.972656 111.714844 30.796875 112.25 31.527344 L 114.660156 35.738281 L 115.378906 37.925781 C 116.058594 39.667969 116.902344 41.265625 117.917969 42.726562 L 123.375 50.007812 C 125.515625 52.898438 126.785156 55.15625 127.179688 56.785156 C 127.714844 58.972656 127.757812 61.976562 127.304688 65.792969 C 127.050781 67.925781 126.6875 70.03125 126.207031 72.105469 C 119.074219 75.921875 113.351562 78.546875 109.039062 79.976562 C 107.289062 80.539062 104.511719 80.511719 100.707031 79.894531 L 95.460938 78.839844 L 96.519531 79.558594 C 97.082031 79.976562 97.691406 80.328125 98.339844 80.609375 L 93.304688 86.882812 C 92.234375 87.949219 90.953125 88.929688 89.457031 89.828125 C 88.132812 90.613281 87.46875 90.949219 87.46875 90.839844 C 86.960938 88.957031 86.441406 88.523438 85.90625 89.535156 L 85.230469 91.765625 L 83.453125 98.078125 C 81.875 99.257812 79.84375 100.40625 77.363281 101.53125 C 73.273438 103.328125 69.203125 104.335938 65.140625 104.5625 C 61.082031 104.757812 57.375 104.40625 54.019531 103.507812 C 51.765625 102.890625 50.113281 102.21875 49.070312 101.488281 L 46.28125 92.941406 L 44.675781 85.746094 C 44.363281 85.546875 44.152344 86.152344 44.039062 87.554688 C 43.898438 89.070312 43.617188 89.800781 43.195312 89.742188 C 42.460938 89.660156 41.757812 88.707031 41.078125 86.882812 L 40.234375 84.144531 L 33.257812 81.789062 C 28.292969 79.964844 25.050781 78.363281 23.53125 76.988281 C 26.347656 76.792969 28.632812 76.261719 30.378906 75.390625 L 32.917969 73.789062 L 27.714844 74.84375 C 23.882812 75.460938 21.105469 75.488281 19.386719 74.925781 C 15.015625 73.496094 9.277344 70.871094 2.175781 67.054688 C 0.734375 60.066406 0.410156 54.960938 1.203125 51.734375 C 1.90625 48.84375 3.851562 45.039062 7.039062 40.324219 C 9.941406 36.058594 11.574219 33.984375 11.941406 34.097656 L 12.070312 32.539062 C 12.152344 31.640625 12.253906 31.066406 12.367188 30.8125 C 12.589844 28.316406 14 26.292969 16.59375 24.75 C 19.019531 23.320312 21.457031 22.816406 23.910156 23.234375 C 26.164062 25.480469 28.167969 26.941406 29.914062 27.613281 L 31.183594 28.117188 L 30.804688 29.886719 L 29.914062 32.875 L 27.675781 34.855469 C 26.855469 35.554688 26.234375 35.878906 25.8125 35.820312 L 25.09375 35.273438 C 24.726562 34.855469 24.601562 34.488281 24.714844 34.179688 C 25.8125 32.722656 26.308594 31.933594 26.195312 31.824219 C 26.136719 31.765625 25.699219 31.949219 24.882812 32.371094 L 23.570312 33.085938 L 21.203125 33.507812 L 19.851562 30.351562 L 17.90625 31.484375 L 19.429688 33.925781 L 20.824219 36.367188 C 20.851562 37.265625 20.371094 37.96875 19.386719 38.472656 C 18.230469 39.089844 17.484375 39.960938 17.144531 41.082031 C 16.550781 43.1875 16.398438 45.238281 16.679688 47.230469 C 16.734375 47.734375 17.355469 46.722656 18.539062 44.199219 L 19.003906 46.976562 C 19.117188 49.082031 18.738281 50.792969 17.863281 52.113281 C 16.933594 52.53125 15.394531 54.203125 13.253906 57.121094 C 11.167969 59.957031 9.433594 61.597656 8.050781 62.046875 C 9.125 62.746094 10.675781 62.199219 12.703125 60.40625 L 17.1875 55.941406 L 20.316406 55.480469 L 18.625 60.195312 C 17.496094 63.308594 17.074219 64.851562 17.355469 64.824219 C 17.636719 64.769531 19.652344 61.554688 23.402344 55.183594 L 24.925781 54.089844 C 26.277344 53.304688 27.855469 52.742188 29.660156 52.40625 C 32.761719 51.816406 36.46875 53.066406 40.785156 56.152344 L 40.359375 56.910156 L 41.375 57.332031 L 42.601562 57.710938 L 42.984375 56.996094 C 43.488281 56.347656 44.335938 55.761719 45.519531 55.226562 C 46.84375 54.609375 47.746094 54.34375 48.226562 54.425781 C 48.480469 54.484375 48.621094 54.59375 48.648438 54.765625 L 48.945312 55.648438 C 49.058594 56.179688 49.15625 56.433594 49.242188 56.40625 L 49.875 55.4375 L 50.425781 54.386719 L 51.863281 48.492188 C 53.554688 49.953125 55.332031 51.101562 57.191406 51.945312 C 63.535156 54.246094 69.792969 53.667969 75.96875 50.21875 L 76.984375 55.058594 C 77.011719 55.171875 77.347656 55.015625 77.996094 54.59375 L 79.179688 53.878906 C 80.335938 53.769531 81.59375 54.007812 82.945312 54.59375 C 83.621094 54.875 84.1875 55.183594 84.636719 55.523438 L 82.523438 56.574219 C 81.054688 57.332031 80.378906 57.808594 80.492188 58.003906 L 83.578125 57.585938 L 87.765625 56.742188 L 88.1875 56.449219 L 89.457031 56.195312 C 92.304688 55.605469 95.6875 56.28125 99.605469 58.214844 C 96.789062 60.179688 94.855469 63.546875 93.8125 68.316406 L 96.011719 64.363281 C 97.789062 61.527344 99.523438 59.648438 101.214844 58.722656 C 104.089844 57.175781 106.699219 57.121094 109.039062 58.550781 L 111.066406 63.140625 C 112.195312 65.496094 113.140625 67.042969 113.902344 67.769531 C 114.15625 68.359375 113.152344 70.339844 110.898438 73.707031 L 112.929688 72.445312 C 114.28125 71.378906 115.042969 70.269531 115.210938 69.117188 C 115.664062 69.566406 116.410156 69.875 117.453125 70.042969 L 118.890625 69.960938 L 117.621094 69.203125 C 116.605469 68.640625 115.691406 67.882812 114.875 66.929688 C 112.363281 63.953125 110.855469 61.023438 110.347656 58.132812 L 109.585938 54.257812 C 109.363281 53.109375 109.261719 51.945312 109.292969 50.765625 L 108.570312 42.976562 L 108.53125 42.726562 L 108.488281 42.726562 C 107.921875 39.835938 107.558594 38.347656 107.386719 38.261719 C 107.304688 38.207031 107.121094 38.710938 106.839844 39.777344 L 106.332031 41.503906 C 105.625 42.066406 104.964844 42.417969 104.34375 42.558594 C 103.667969 42.695312 103.160156 42.570312 102.820312 42.179688 L 101.976562 41.378906 C 101.550781 41.011719 101.242188 40.789062 101.042969 40.703125 C 103.863281 39.441406 105.386719 38.585938 105.613281 38.136719 C 105.894531 37.632812 106.132812 36.875 106.332031 35.863281 L 109.121094 37.84375 L 110.558594 37.96875 C 110.699219 37.6875 110.589844 37.308594 110.222656 36.832031 C 109.855469 36.355469 109.375 35.960938 108.785156 35.652344 C 108.304688 35.402344 107.867188 34.980469 107.472656 34.390625 L 107.050781 33.589844 L 107.429688 32.707031 C 107.628906 32.089844 107.5 31.65625 107.050781 31.402344 C 106.402344 31.066406 105.625 30.8125 104.722656 30.644531 C 103.710938 30.417969 103.1875 30.488281 103.160156 30.855469 C 103.132812 31.105469 103.554688 31.347656 104.429688 31.570312 C 105.246094 31.738281 105.582031 31.964844 105.441406 32.242188 C 104.597656 33.757812 103.835938 34.347656 103.160156 34.011719 L 101.636719 33.339844 C 101.042969 33.058594 100.691406 32.707031 100.578125 32.285156 L 100.03125 31.234375 C 99.804688 30.8125 99.691406 30.449219 99.691406 30.140625 L 101.214844 28.664062 L 102.441406 27.949219 C 103.90625 27.699219 105.835938 28.0625 108.234375 29.042969 "/>
</g>
</svg>
